<?xml version="1.0" encoding="UTF-8" standalone="no"?>
<!DOCTYPE svg PUBLIC "-//W3C//DTD SVG 1.1//EN" "http://www.w3.org/Graphics/SVG/1.1/DTD/svg11.dtd">
<svg width="100%" height="100%" viewBox="0 0 1209 692" version="1.1" xmlns="http://www.w3.org/2000/svg" xmlns:xlink="http://www.w3.org/1999/xlink" xml:space="preserve" xmlns:serif="http://www.serif.com/" style="fill-rule:evenodd;clip-rule:evenodd;stroke-linejoin:round;stroke-miterlimit:2;">
    <g transform="matrix(1,0,0,1,-241.996,-305.442)">
        <g transform="matrix(2.09249,0,0,2.09249,-121.569,-1147.91)">
            <g transform="matrix(1,0,0,1,7.57891,-25.6131)">
                <g transform="matrix(252.807,0,0,252.807,159.849,903.959)">
                    <path d="M0.025,-0L0.025,-0.496L0.113,-0.496L0.122,-0.438L0.127,-0.438C0.136,-0.459 0.149,-0.476 0.167,-0.489C0.185,-0.501 0.206,-0.508 0.231,-0.508C0.255,-0.508 0.276,-0.502 0.294,-0.49C0.312,-0.478 0.325,-0.461 0.334,-0.438L0.338,-0.438C0.347,-0.458 0.36,-0.475 0.379,-0.488C0.398,-0.501 0.421,-0.508 0.448,-0.508C0.485,-0.508 0.513,-0.496 0.532,-0.472C0.551,-0.448 0.56,-0.414 0.56,-0.371L0.56,-0L0.458,-0L0.458,-0.35C0.458,-0.37 0.454,-0.386 0.446,-0.398C0.437,-0.409 0.424,-0.415 0.406,-0.415C0.388,-0.415 0.373,-0.408 0.362,-0.394C0.35,-0.38 0.344,-0.36 0.344,-0.335L0.344,-0L0.241,-0L0.241,-0.35C0.241,-0.37 0.237,-0.386 0.229,-0.398C0.221,-0.409 0.208,-0.415 0.19,-0.415C0.172,-0.415 0.157,-0.408 0.145,-0.394C0.133,-0.38 0.127,-0.36 0.127,-0.335L0.127,-0L0.025,-0Z" style="fill:rgb(17,17,17);fill-rule:nonzero;"/>
                </g>
                <g transform="matrix(252.807,0,0,252.807,311.533,903.959)">
                    <path d="M0.273,0.012C0.232,0.012 0.195,0.002 0.162,-0.018C0.129,-0.037 0.103,-0.066 0.085,-0.105C0.066,-0.144 0.056,-0.191 0.056,-0.248C0.056,-0.305 0.066,-0.352 0.085,-0.391C0.104,-0.43 0.131,-0.459 0.164,-0.479C0.197,-0.498 0.233,-0.508 0.274,-0.508C0.312,-0.508 0.343,-0.501 0.368,-0.487C0.393,-0.472 0.411,-0.454 0.423,-0.432L0.423,-0.72L0.529,-0.72L0.529,-0L0.438,-0L0.429,-0.073L0.423,-0.073C0.41,-0.047 0.391,-0.026 0.367,-0.011C0.342,0.004 0.311,0.012 0.273,0.012ZM0.295,-0.089C0.333,-0.089 0.365,-0.102 0.39,-0.129C0.415,-0.156 0.427,-0.195 0.427,-0.248C0.427,-0.301 0.415,-0.341 0.39,-0.368C0.365,-0.394 0.333,-0.407 0.295,-0.407C0.257,-0.407 0.226,-0.394 0.201,-0.367C0.175,-0.34 0.163,-0.3 0.163,-0.247C0.163,-0.194 0.175,-0.155 0.201,-0.129C0.226,-0.102 0.257,-0.089 0.295,-0.089Z" style="fill:rgb(17,17,17);fill-rule:nonzero;"/>
                </g>
                <g transform="matrix(252.807,0,0,252.807,463.217,903.959)">
                    <path d="M0.29,-0.572C0.267,-0.572 0.247,-0.58 0.232,-0.595C0.216,-0.61 0.208,-0.628 0.208,-0.65C0.208,-0.672 0.216,-0.69 0.232,-0.705C0.247,-0.72 0.267,-0.727 0.29,-0.727C0.314,-0.727 0.334,-0.72 0.35,-0.705C0.365,-0.69 0.373,-0.672 0.373,-0.65C0.373,-0.628 0.365,-0.61 0.35,-0.595C0.334,-0.58 0.314,-0.572 0.29,-0.572ZM0.091,-0L0.091,-0.092L0.247,-0.092L0.247,-0.371C0.247,-0.393 0.236,-0.404 0.215,-0.404L0.105,-0.404L0.105,-0.496L0.234,-0.496C0.275,-0.496 0.306,-0.487 0.325,-0.468C0.343,-0.448 0.353,-0.418 0.353,-0.377L0.353,-0.092L0.509,-0.092L0.509,-0L0.091,-0Z" style="fill:rgb(17,17,17);fill-rule:nonzero;"/>
                </g>
                <g transform="matrix(252.807,0,0,252.807,614.901,903.959)">
                    <path d="M0.29,-0.572C0.267,-0.572 0.247,-0.58 0.232,-0.595C0.216,-0.61 0.208,-0.628 0.208,-0.65C0.208,-0.672 0.216,-0.69 0.232,-0.705C0.247,-0.72 0.267,-0.727 0.29,-0.727C0.314,-0.727 0.334,-0.72 0.35,-0.705C0.365,-0.69 0.373,-0.672 0.373,-0.65C0.373,-0.628 0.365,-0.61 0.35,-0.595C0.334,-0.58 0.314,-0.572 0.29,-0.572ZM0.091,-0L0.091,-0.092L0.247,-0.092L0.247,-0.371C0.247,-0.393 0.236,-0.404 0.215,-0.404L0.105,-0.404L0.105,-0.496L0.234,-0.496C0.275,-0.496 0.306,-0.487 0.325,-0.468C0.343,-0.448 0.353,-0.418 0.353,-0.377L0.353,-0.092L0.509,-0.092L0.509,-0L0.091,-0Z" style="fill:rgb(17,17,17);fill-rule:nonzero;"/>
                </g>
            </g>
            <g transform="matrix(0.206592,0,0,0.206592,137.474,773.652)">
                <g transform="matrix(256.133,0,0,256.133,159.849,903.959)">
                    <path d="M0.071,-0L0.071,-0.526L0.147,-0.526L0.151,-0.454C0.167,-0.48 0.189,-0.501 0.216,-0.516C0.243,-0.531 0.272,-0.538 0.302,-0.538C0.327,-0.538 0.35,-0.535 0.371,-0.528C0.391,-0.521 0.409,-0.51 0.424,-0.496C0.439,-0.481 0.452,-0.463 0.461,-0.442C0.478,-0.473 0.502,-0.497 0.532,-0.514C0.561,-0.53 0.592,-0.538 0.625,-0.538C0.664,-0.538 0.697,-0.531 0.725,-0.516C0.752,-0.501 0.774,-0.478 0.789,-0.448C0.804,-0.417 0.811,-0.379 0.811,-0.334L0.811,-0L0.728,-0L0.728,-0.325C0.728,-0.372 0.718,-0.408 0.697,-0.431C0.676,-0.454 0.648,-0.466 0.613,-0.466C0.589,-0.466 0.567,-0.46 0.548,-0.447C0.528,-0.434 0.512,-0.416 0.501,-0.391C0.489,-0.366 0.483,-0.336 0.483,-0.301L0.483,-0L0.399,-0L0.399,-0.325C0.399,-0.372 0.389,-0.408 0.368,-0.431C0.347,-0.454 0.32,-0.466 0.285,-0.466C0.262,-0.466 0.24,-0.46 0.221,-0.447C0.201,-0.434 0.185,-0.416 0.173,-0.391C0.161,-0.366 0.155,-0.336 0.155,-0.301L0.155,-0L0.071,-0Z" style="fill:rgb(17,17,17);fill-rule:nonzero;"/>
                </g>
                <g transform="matrix(256.133,0,0,256.133,384.99,903.959)">
                    <path d="M0.26,0.012C0.221,0.012 0.188,0.005 0.159,-0.01C0.13,-0.025 0.108,-0.047 0.092,-0.078C0.076,-0.108 0.068,-0.146 0.068,-0.191L0.068,-0.526L0.152,-0.526L0.152,-0.2C0.152,-0.153 0.164,-0.118 0.187,-0.095C0.21,-0.072 0.24,-0.06 0.279,-0.06C0.306,-0.06 0.33,-0.066 0.351,-0.079C0.372,-0.091 0.39,-0.109 0.403,-0.133C0.416,-0.157 0.422,-0.186 0.422,-0.221L0.422,-0.526L0.506,-0.526L0.506,-0L0.43,-0L0.425,-0.084C0.411,-0.053 0.39,-0.03 0.361,-0.013C0.331,0.004 0.298,0.012 0.26,0.012Z" style="fill:rgb(17,17,17);fill-rule:nonzero;"/>
                </g>
                <g transform="matrix(256.133,0,0,256.133,532.779,903.959)">
                    <rect x="0.071" y="-0.72" width="0.084" height="0.72" style="fill:rgb(17,17,17);fill-rule:nonzero;"/>
                </g>
                <g transform="matrix(256.133,0,0,256.133,590.665,903.959)">
                    <path d="M0.275,-0C0.245,-0 0.219,-0.005 0.197,-0.014C0.175,-0.023 0.158,-0.039 0.147,-0.062C0.135,-0.084 0.129,-0.114 0.129,-0.152L0.129,-0.455L0.037,-0.455L0.037,-0.526L0.129,-0.526L0.14,-0.657L0.213,-0.657L0.213,-0.526L0.362,-0.526L0.362,-0.455L0.213,-0.455L0.213,-0.152C0.213,-0.121 0.219,-0.099 0.232,-0.089C0.245,-0.078 0.267,-0.072 0.299,-0.072L0.36,-0.072L0.36,-0L0.275,-0Z" style="fill:rgb(17,17,17);fill-rule:nonzero;"/>
                </g>
                <g transform="matrix(256.133,0,0,256.133,694.655,903.959)">
                    <path d="M0.079,-0L0.079,-0.526L0.163,-0.526L0.163,-0L0.079,-0ZM0.121,-0.626C0.104,-0.626 0.091,-0.631 0.08,-0.643C0.069,-0.654 0.063,-0.667 0.063,-0.684C0.063,-0.701 0.069,-0.714 0.08,-0.725C0.091,-0.735 0.104,-0.74 0.121,-0.74C0.137,-0.74 0.151,-0.735 0.162,-0.725C0.173,-0.714 0.179,-0.701 0.179,-0.684C0.179,-0.667 0.173,-0.654 0.162,-0.643C0.151,-0.631 0.137,-0.626 0.121,-0.626Z" style="fill:rgb(17,17,17);fill-rule:nonzero;"/>
                </g>
                <g transform="matrix(256.133,0,0,256.133,756.383,903.959)">
                    <path d="M0.288,0.012C0.241,0.012 0.2,0 0.164,-0.024C0.128,-0.048 0.1,-0.081 0.08,-0.123C0.06,-0.164 0.05,-0.211 0.05,-0.264C0.05,-0.317 0.06,-0.365 0.08,-0.406C0.1,-0.447 0.128,-0.479 0.164,-0.503C0.2,-0.526 0.242,-0.538 0.289,-0.538C0.33,-0.538 0.366,-0.53 0.396,-0.513C0.425,-0.496 0.449,-0.473 0.466,-0.443L0.466,-0.72L0.55,-0.72L0.55,-0L0.474,-0L0.467,-0.084C0.457,-0.067 0.444,-0.052 0.428,-0.037C0.411,-0.022 0.392,-0.011 0.369,-0.002C0.345,0.008 0.319,0.012 0.288,0.012ZM0.299,-0.061C0.332,-0.061 0.361,-0.069 0.386,-0.086C0.411,-0.102 0.43,-0.125 0.443,-0.156C0.456,-0.186 0.463,-0.222 0.463,-0.263C0.463,-0.304 0.456,-0.34 0.443,-0.371C0.43,-0.401 0.411,-0.424 0.386,-0.441C0.361,-0.457 0.332,-0.465 0.299,-0.465C0.268,-0.465 0.24,-0.457 0.215,-0.441C0.19,-0.424 0.171,-0.401 0.157,-0.371C0.143,-0.34 0.136,-0.304 0.136,-0.263C0.136,-0.222 0.143,-0.186 0.157,-0.156C0.171,-0.125 0.19,-0.102 0.215,-0.086C0.24,-0.069 0.268,-0.061 0.299,-0.061Z" style="fill:rgb(17,17,17);fill-rule:nonzero;"/>
                </g>
                <g transform="matrix(256.133,0,0,256.133,915.442,903.959)">
                    <path d="M0.079,-0L0.079,-0.526L0.163,-0.526L0.163,-0L0.079,-0ZM0.121,-0.626C0.104,-0.626 0.091,-0.631 0.08,-0.643C0.069,-0.654 0.063,-0.667 0.063,-0.684C0.063,-0.701 0.069,-0.714 0.08,-0.725C0.091,-0.735 0.104,-0.74 0.121,-0.74C0.137,-0.74 0.151,-0.735 0.162,-0.725C0.173,-0.714 0.179,-0.701 0.179,-0.684C0.179,-0.667 0.173,-0.654 0.162,-0.643C0.151,-0.631 0.137,-0.626 0.121,-0.626Z" style="fill:rgb(17,17,17);fill-rule:nonzero;"/>
                </g>
                <g transform="matrix(256.133,0,0,256.133,977.17,903.959)">
                    <path d="M0.071,-0L0.071,-0.526L0.147,-0.526L0.151,-0.454C0.167,-0.48 0.189,-0.501 0.216,-0.516C0.243,-0.531 0.272,-0.538 0.302,-0.538C0.327,-0.538 0.35,-0.535 0.371,-0.528C0.391,-0.521 0.409,-0.51 0.424,-0.496C0.439,-0.481 0.452,-0.463 0.461,-0.442C0.478,-0.473 0.502,-0.497 0.532,-0.514C0.561,-0.53 0.592,-0.538 0.625,-0.538C0.664,-0.538 0.697,-0.531 0.725,-0.516C0.752,-0.501 0.774,-0.478 0.789,-0.448C0.804,-0.417 0.811,-0.379 0.811,-0.334L0.811,-0L0.728,-0L0.728,-0.325C0.728,-0.372 0.718,-0.408 0.697,-0.431C0.676,-0.454 0.648,-0.466 0.613,-0.466C0.589,-0.466 0.567,-0.46 0.548,-0.447C0.528,-0.434 0.512,-0.416 0.501,-0.391C0.489,-0.366 0.483,-0.336 0.483,-0.301L0.483,-0L0.399,-0L0.399,-0.325C0.399,-0.372 0.389,-0.408 0.368,-0.431C0.347,-0.454 0.32,-0.466 0.285,-0.466C0.262,-0.466 0.24,-0.46 0.221,-0.447C0.201,-0.434 0.185,-0.416 0.173,-0.391C0.161,-0.366 0.155,-0.336 0.155,-0.301L0.155,-0L0.071,-0Z" style="fill:rgb(17,17,17);fill-rule:nonzero;"/>
                </g>
                <g transform="matrix(256.133,0,0,256.133,1202.31,903.959)">
                    <path d="M0.289,0.012C0.242,0.012 0.201,0.001 0.165,-0.022C0.129,-0.045 0.101,-0.077 0.081,-0.118C0.06,-0.159 0.05,-0.208 0.05,-0.263C0.05,-0.318 0.06,-0.367 0.081,-0.408C0.101,-0.449 0.129,-0.481 0.166,-0.504C0.202,-0.527 0.244,-0.538 0.291,-0.538C0.342,-0.538 0.384,-0.527 0.418,-0.504C0.452,-0.481 0.478,-0.451 0.495,-0.413C0.512,-0.375 0.521,-0.333 0.521,-0.288L0.521,-0.268C0.521,-0.261 0.521,-0.253 0.52,-0.244L0.113,-0.244L0.113,-0.309L0.439,-0.309C0.438,-0.36 0.423,-0.4 0.395,-0.427C0.366,-0.454 0.331,-0.467 0.289,-0.467C0.261,-0.467 0.235,-0.46 0.212,-0.447C0.188,-0.433 0.169,-0.413 0.154,-0.386C0.139,-0.359 0.132,-0.326 0.132,-0.286L0.132,-0.258C0.132,-0.214 0.139,-0.177 0.154,-0.148C0.169,-0.118 0.188,-0.096 0.212,-0.081C0.235,-0.066 0.261,-0.059 0.289,-0.059C0.326,-0.059 0.356,-0.066 0.377,-0.081C0.398,-0.095 0.414,-0.115 0.424,-0.142L0.507,-0.142C0.499,-0.113 0.485,-0.086 0.466,-0.063C0.446,-0.04 0.421,-0.021 0.392,-0.008C0.362,0.005 0.328,0.012 0.289,0.012Z" style="fill:rgb(17,17,17);fill-rule:nonzero;"/>
                </g>
                <g transform="matrix(256.133,0,0,256.133,1347.28,903.959)">
                    <path d="M0.071,-0L0.071,-0.526L0.147,-0.526L0.151,-0.443C0.166,-0.473 0.189,-0.496 0.218,-0.513C0.247,-0.53 0.28,-0.538 0.318,-0.538C0.357,-0.538 0.39,-0.531 0.419,-0.516C0.448,-0.501 0.47,-0.479 0.486,-0.449C0.502,-0.419 0.51,-0.381 0.51,-0.335L0.51,-0L0.426,-0L0.426,-0.326C0.426,-0.373 0.415,-0.408 0.392,-0.431C0.369,-0.454 0.338,-0.466 0.299,-0.466C0.273,-0.466 0.249,-0.46 0.227,-0.448C0.205,-0.435 0.188,-0.417 0.175,-0.393C0.162,-0.369 0.155,-0.34 0.155,-0.305L0.155,-0L0.071,-0Z" style="fill:rgb(17,17,17);fill-rule:nonzero;"/>
                </g>
                <g transform="matrix(256.133,0,0,256.133,1495.33,903.959)">
                    <path d="M0.261,0.012C0.214,0.012 0.175,0.005 0.144,-0.01C0.113,-0.024 0.089,-0.044 0.073,-0.07C0.057,-0.095 0.047,-0.125 0.044,-0.159L0.13,-0.159C0.133,-0.141 0.139,-0.125 0.149,-0.11C0.158,-0.095 0.172,-0.082 0.191,-0.073C0.21,-0.064 0.233,-0.059 0.262,-0.059C0.285,-0.059 0.304,-0.063 0.32,-0.07C0.336,-0.077 0.348,-0.086 0.357,-0.099C0.365,-0.112 0.369,-0.126 0.369,-0.143C0.369,-0.165 0.364,-0.182 0.355,-0.195C0.345,-0.207 0.331,-0.216 0.313,-0.223C0.294,-0.229 0.271,-0.234 0.244,-0.237C0.215,-0.241 0.189,-0.247 0.166,-0.254C0.143,-0.261 0.124,-0.271 0.109,-0.283C0.093,-0.295 0.081,-0.31 0.073,-0.328C0.065,-0.346 0.061,-0.367 0.061,-0.392C0.061,-0.421 0.069,-0.446 0.084,-0.468C0.099,-0.49 0.121,-0.507 0.15,-0.52C0.178,-0.532 0.211,-0.538 0.25,-0.538C0.307,-0.538 0.352,-0.525 0.385,-0.499C0.418,-0.473 0.437,-0.436 0.443,-0.388L0.36,-0.388C0.357,-0.413 0.345,-0.432 0.326,-0.446C0.307,-0.46 0.281,-0.467 0.249,-0.467C0.215,-0.467 0.189,-0.461 0.172,-0.448C0.155,-0.435 0.146,-0.419 0.146,-0.398C0.146,-0.383 0.15,-0.369 0.158,-0.357C0.165,-0.344 0.178,-0.334 0.197,-0.326C0.216,-0.317 0.241,-0.311 0.272,-0.307C0.311,-0.302 0.345,-0.295 0.372,-0.285C0.399,-0.274 0.42,-0.258 0.435,-0.237C0.449,-0.216 0.456,-0.187 0.455,-0.15C0.455,-0.115 0.447,-0.086 0.431,-0.062C0.414,-0.038 0.392,-0.02 0.363,-0.007C0.333,0.006 0.3,0.012 0.261,0.012Z" style="fill:rgb(17,17,17);fill-rule:nonzero;"/>
                </g>
                <g transform="matrix(256.133,0,0,256.133,1625.7,903.959)">
                    <path d="M0.079,-0L0.079,-0.526L0.163,-0.526L0.163,-0L0.079,-0ZM0.121,-0.626C0.104,-0.626 0.091,-0.631 0.08,-0.643C0.069,-0.654 0.063,-0.667 0.063,-0.684C0.063,-0.701 0.069,-0.714 0.08,-0.725C0.091,-0.735 0.104,-0.74 0.121,-0.74C0.137,-0.74 0.151,-0.735 0.162,-0.725C0.173,-0.714 0.179,-0.701 0.179,-0.684C0.179,-0.667 0.173,-0.654 0.162,-0.643C0.151,-0.631 0.137,-0.626 0.121,-0.626Z" style="fill:rgb(17,17,17);fill-rule:nonzero;"/>
                </g>
                <g transform="matrix(256.133,0,0,256.133,1687.43,903.959)">
                    <path d="M0.297,0.012C0.248,0.012 0.205,0.001 0.168,-0.022C0.131,-0.045 0.102,-0.077 0.081,-0.118C0.06,-0.159 0.05,-0.208 0.05,-0.263C0.05,-0.319 0.061,-0.368 0.082,-0.409C0.102,-0.45 0.132,-0.481 0.17,-0.504C0.207,-0.527 0.25,-0.538 0.299,-0.538C0.348,-0.538 0.392,-0.527 0.429,-0.504C0.466,-0.481 0.494,-0.45 0.515,-0.409C0.536,-0.368 0.546,-0.319 0.546,-0.263C0.546,-0.208 0.536,-0.159 0.515,-0.118C0.494,-0.077 0.464,-0.045 0.427,-0.022C0.39,0.001 0.346,0.012 0.297,0.012ZM0.297,-0.06C0.328,-0.06 0.355,-0.068 0.38,-0.083C0.405,-0.097 0.424,-0.12 0.439,-0.151C0.453,-0.181 0.46,-0.218 0.46,-0.263C0.46,-0.308 0.453,-0.346 0.439,-0.376C0.425,-0.406 0.406,-0.428 0.382,-0.444C0.357,-0.459 0.33,-0.466 0.299,-0.466C0.269,-0.466 0.242,-0.459 0.217,-0.444C0.192,-0.428 0.173,-0.406 0.158,-0.376C0.143,-0.346 0.136,-0.308 0.136,-0.263C0.136,-0.218 0.143,-0.181 0.158,-0.151C0.172,-0.12 0.191,-0.097 0.216,-0.083C0.24,-0.068 0.267,-0.06 0.297,-0.06Z" style="fill:rgb(17,17,17);fill-rule:nonzero;"/>
                </g>
                <g transform="matrix(256.133,0,0,256.133,1840.34,903.959)">
                    <path d="M0.071,-0L0.071,-0.526L0.147,-0.526L0.151,-0.443C0.166,-0.473 0.189,-0.496 0.218,-0.513C0.247,-0.53 0.28,-0.538 0.318,-0.538C0.357,-0.538 0.39,-0.531 0.419,-0.516C0.448,-0.501 0.47,-0.479 0.486,-0.449C0.502,-0.419 0.51,-0.381 0.51,-0.335L0.51,-0L0.426,-0L0.426,-0.326C0.426,-0.373 0.415,-0.408 0.392,-0.431C0.369,-0.454 0.338,-0.466 0.299,-0.466C0.273,-0.466 0.249,-0.46 0.227,-0.448C0.205,-0.435 0.188,-0.417 0.175,-0.393C0.162,-0.369 0.155,-0.34 0.155,-0.305L0.155,-0L0.071,-0Z" style="fill:rgb(17,17,17);fill-rule:nonzero;"/>
                </g>
                <g transform="matrix(256.133,0,0,256.133,1988.38,903.959)">
                    <path d="M0.235,0.012C0.195,0.012 0.162,0.005 0.135,-0.011C0.108,-0.025 0.088,-0.046 0.075,-0.071C0.062,-0.095 0.055,-0.122 0.055,-0.151C0.055,-0.186 0.064,-0.215 0.082,-0.24C0.099,-0.264 0.124,-0.282 0.156,-0.295C0.188,-0.308 0.225,-0.314 0.268,-0.314L0.399,-0.314C0.399,-0.348 0.395,-0.376 0.387,-0.399C0.379,-0.422 0.366,-0.439 0.348,-0.45C0.33,-0.461 0.306,-0.467 0.276,-0.467C0.246,-0.467 0.22,-0.46 0.199,-0.445C0.178,-0.43 0.164,-0.407 0.159,-0.378L0.073,-0.378C0.077,-0.413 0.089,-0.442 0.108,-0.466C0.127,-0.489 0.152,-0.507 0.182,-0.52C0.211,-0.532 0.243,-0.538 0.276,-0.538C0.323,-0.538 0.362,-0.53 0.393,-0.513C0.424,-0.496 0.446,-0.472 0.461,-0.442C0.476,-0.411 0.483,-0.375 0.483,-0.334L0.483,-0L0.408,-0L0.403,-0.09C0.396,-0.076 0.388,-0.063 0.378,-0.051C0.367,-0.038 0.355,-0.027 0.341,-0.018C0.327,-0.009 0.311,-0.001 0.294,0.004C0.276,0.009 0.256,0.012 0.235,0.012ZM0.247,-0.059C0.269,-0.059 0.289,-0.064 0.308,-0.074C0.327,-0.084 0.343,-0.097 0.357,-0.115C0.37,-0.132 0.381,-0.151 0.388,-0.172C0.395,-0.193 0.399,-0.216 0.399,-0.239L0.399,-0.249L0.275,-0.249C0.244,-0.249 0.218,-0.245 0.199,-0.237C0.179,-0.229 0.165,-0.218 0.156,-0.204C0.147,-0.189 0.143,-0.173 0.143,-0.155C0.143,-0.136 0.147,-0.119 0.155,-0.105C0.163,-0.09 0.175,-0.079 0.191,-0.071C0.206,-0.063 0.225,-0.059 0.247,-0.059Z" style="fill:rgb(17,17,17);fill-rule:nonzero;"/>
                </g>
                <g transform="matrix(256.133,0,0,256.133,2129.51,903.959)">
                    <rect x="0.071" y="-0.72" width="0.084" height="0.72" style="fill:rgb(17,17,17);fill-rule:nonzero;"/>
                </g>
                <g transform="matrix(256.133,0,0,256.133,2256.3,903.959)">
                    <path d="M0.288,0.012C0.241,0.012 0.2,0 0.164,-0.024C0.128,-0.048 0.1,-0.081 0.08,-0.123C0.06,-0.164 0.05,-0.211 0.05,-0.264C0.05,-0.317 0.06,-0.365 0.08,-0.406C0.1,-0.447 0.128,-0.479 0.164,-0.503C0.2,-0.526 0.242,-0.538 0.289,-0.538C0.33,-0.538 0.366,-0.53 0.396,-0.513C0.425,-0.496 0.449,-0.473 0.466,-0.443L0.466,-0.72L0.55,-0.72L0.55,-0L0.474,-0L0.467,-0.084C0.457,-0.067 0.444,-0.052 0.428,-0.037C0.411,-0.022 0.392,-0.011 0.369,-0.002C0.345,0.008 0.319,0.012 0.288,0.012ZM0.299,-0.061C0.332,-0.061 0.361,-0.069 0.386,-0.086C0.411,-0.102 0.43,-0.125 0.443,-0.156C0.456,-0.186 0.463,-0.222 0.463,-0.263C0.463,-0.304 0.456,-0.34 0.443,-0.371C0.43,-0.401 0.411,-0.424 0.386,-0.441C0.361,-0.457 0.332,-0.465 0.299,-0.465C0.268,-0.465 0.24,-0.457 0.215,-0.441C0.19,-0.424 0.171,-0.401 0.157,-0.371C0.143,-0.34 0.136,-0.304 0.136,-0.263C0.136,-0.222 0.143,-0.186 0.157,-0.156C0.171,-0.125 0.19,-0.102 0.215,-0.086C0.24,-0.069 0.268,-0.061 0.299,-0.061Z" style="fill:rgb(17,17,17);fill-rule:nonzero;"/>
                </g>
                <g transform="matrix(256.133,0,0,256.133,2415.36,903.959)">
                    <path d="M0.079,-0L0.079,-0.526L0.163,-0.526L0.163,-0L0.079,-0ZM0.121,-0.626C0.104,-0.626 0.091,-0.631 0.08,-0.643C0.069,-0.654 0.063,-0.667 0.063,-0.684C0.063,-0.701 0.069,-0.714 0.08,-0.725C0.091,-0.735 0.104,-0.74 0.121,-0.74C0.137,-0.74 0.151,-0.735 0.162,-0.725C0.173,-0.714 0.179,-0.701 0.179,-0.684C0.179,-0.667 0.173,-0.654 0.162,-0.643C0.151,-0.631 0.137,-0.626 0.121,-0.626Z" style="fill:rgb(17,17,17);fill-rule:nonzero;"/>
                </g>
                <g transform="matrix(256.133,0,0,256.133,2477.09,903.959)">
                    <path d="M0.277,0.232C0.23,0.232 0.188,0.226 0.153,0.215C0.117,0.203 0.089,0.185 0.07,0.161C0.05,0.137 0.04,0.107 0.04,0.072C0.04,0.055 0.043,0.038 0.05,0.02C0.056,0.002 0.067,-0.015 0.083,-0.032C0.098,-0.049 0.12,-0.064 0.149,-0.077L0.213,-0.043C0.175,-0.028 0.15,-0.011 0.139,0.008C0.128,0.027 0.122,0.046 0.122,0.064C0.122,0.086 0.129,0.104 0.142,0.119C0.155,0.134 0.173,0.145 0.196,0.152C0.219,0.159 0.246,0.163 0.277,0.163C0.307,0.163 0.333,0.159 0.355,0.152C0.376,0.144 0.393,0.133 0.405,0.119C0.416,0.104 0.422,0.087 0.422,0.068C0.422,0.04 0.413,0.018 0.395,0.003C0.377,-0.013 0.342,-0.022 0.29,-0.025C0.249,-0.028 0.215,-0.031 0.188,-0.036C0.161,-0.041 0.138,-0.046 0.121,-0.053C0.103,-0.059 0.088,-0.066 0.077,-0.074C0.065,-0.082 0.054,-0.09 0.045,-0.099L0.045,-0.122L0.144,-0.217L0.223,-0.191L0.115,-0.102L0.128,-0.14C0.135,-0.135 0.142,-0.13 0.149,-0.125C0.156,-0.12 0.165,-0.116 0.177,-0.113C0.188,-0.109 0.205,-0.105 0.226,-0.102C0.247,-0.099 0.274,-0.096 0.309,-0.093C0.357,-0.09 0.395,-0.082 0.424,-0.069C0.453,-0.056 0.473,-0.039 0.486,-0.017C0.499,0.006 0.505,0.033 0.505,0.065C0.505,0.093 0.497,0.12 0.482,0.145C0.466,0.17 0.441,0.191 0.408,0.208C0.374,0.224 0.33,0.232 0.277,0.232ZM0.276,-0.164C0.233,-0.164 0.197,-0.172 0.168,-0.189C0.138,-0.205 0.115,-0.227 0.1,-0.256C0.085,-0.284 0.077,-0.316 0.077,-0.351C0.077,-0.386 0.085,-0.418 0.101,-0.446C0.116,-0.474 0.139,-0.496 0.169,-0.513C0.198,-0.53 0.234,-0.538 0.276,-0.538C0.319,-0.538 0.356,-0.53 0.385,-0.513C0.414,-0.496 0.437,-0.474 0.452,-0.446C0.467,-0.418 0.475,-0.386 0.475,-0.351C0.475,-0.316 0.467,-0.284 0.452,-0.256C0.437,-0.227 0.414,-0.205 0.385,-0.189C0.356,-0.172 0.319,-0.164 0.276,-0.164ZM0.276,-0.233C0.313,-0.233 0.342,-0.243 0.363,-0.263C0.384,-0.282 0.394,-0.312 0.394,-0.351C0.394,-0.39 0.384,-0.42 0.363,-0.439C0.342,-0.458 0.313,-0.468 0.276,-0.468C0.241,-0.468 0.212,-0.458 0.19,-0.439C0.167,-0.42 0.156,-0.39 0.156,-0.351C0.156,-0.312 0.167,-0.282 0.189,-0.263C0.21,-0.243 0.239,-0.233 0.276,-0.233ZM0.364,-0.455L0.339,-0.526L0.545,-0.526L0.545,-0.463L0.364,-0.455Z" style="fill:rgb(17,17,17);fill-rule:nonzero;"/>
                </g>
                <g transform="matrix(256.133,0,0,256.133,2624.36,903.959)">
                    <path d="M0.079,-0L0.079,-0.526L0.163,-0.526L0.163,-0L0.079,-0ZM0.121,-0.626C0.104,-0.626 0.091,-0.631 0.08,-0.643C0.069,-0.654 0.063,-0.667 0.063,-0.684C0.063,-0.701 0.069,-0.714 0.08,-0.725C0.091,-0.735 0.104,-0.74 0.121,-0.74C0.137,-0.74 0.151,-0.735 0.162,-0.725C0.173,-0.714 0.179,-0.701 0.179,-0.684C0.179,-0.667 0.173,-0.654 0.162,-0.643C0.151,-0.631 0.137,-0.626 0.121,-0.626Z" style="fill:rgb(17,17,17);fill-rule:nonzero;"/>
                </g>
                <g transform="matrix(256.133,0,0,256.133,2686.09,903.959)">
                    <path d="M0.275,-0C0.245,-0 0.219,-0.005 0.197,-0.014C0.175,-0.023 0.158,-0.039 0.147,-0.062C0.135,-0.084 0.129,-0.114 0.129,-0.152L0.129,-0.455L0.037,-0.455L0.037,-0.526L0.129,-0.526L0.14,-0.657L0.213,-0.657L0.213,-0.526L0.362,-0.526L0.362,-0.455L0.213,-0.455L0.213,-0.152C0.213,-0.121 0.219,-0.099 0.232,-0.089C0.245,-0.078 0.267,-0.072 0.299,-0.072L0.36,-0.072L0.36,-0L0.275,-0Z" style="fill:rgb(17,17,17);fill-rule:nonzero;"/>
                </g>
                <g transform="matrix(256.133,0,0,256.133,2790.08,903.959)">
                    <path d="M0.235,0.012C0.195,0.012 0.162,0.005 0.135,-0.011C0.108,-0.025 0.088,-0.046 0.075,-0.071C0.062,-0.095 0.055,-0.122 0.055,-0.151C0.055,-0.186 0.064,-0.215 0.082,-0.24C0.099,-0.264 0.124,-0.282 0.156,-0.295C0.188,-0.308 0.225,-0.314 0.268,-0.314L0.399,-0.314C0.399,-0.348 0.395,-0.376 0.387,-0.399C0.379,-0.422 0.366,-0.439 0.348,-0.45C0.33,-0.461 0.306,-0.467 0.276,-0.467C0.246,-0.467 0.22,-0.46 0.199,-0.445C0.178,-0.43 0.164,-0.407 0.159,-0.378L0.073,-0.378C0.077,-0.413 0.089,-0.442 0.108,-0.466C0.127,-0.489 0.152,-0.507 0.182,-0.52C0.211,-0.532 0.243,-0.538 0.276,-0.538C0.323,-0.538 0.362,-0.53 0.393,-0.513C0.424,-0.496 0.446,-0.472 0.461,-0.442C0.476,-0.411 0.483,-0.375 0.483,-0.334L0.483,-0L0.408,-0L0.403,-0.09C0.396,-0.076 0.388,-0.063 0.378,-0.051C0.367,-0.038 0.355,-0.027 0.341,-0.018C0.327,-0.009 0.311,-0.001 0.294,0.004C0.276,0.009 0.256,0.012 0.235,0.012ZM0.247,-0.059C0.269,-0.059 0.289,-0.064 0.308,-0.074C0.327,-0.084 0.343,-0.097 0.357,-0.115C0.37,-0.132 0.381,-0.151 0.388,-0.172C0.395,-0.193 0.399,-0.216 0.399,-0.239L0.399,-0.249L0.275,-0.249C0.244,-0.249 0.218,-0.245 0.199,-0.237C0.179,-0.229 0.165,-0.218 0.156,-0.204C0.147,-0.189 0.143,-0.173 0.143,-0.155C0.143,-0.136 0.147,-0.119 0.155,-0.105C0.163,-0.09 0.175,-0.079 0.191,-0.071C0.206,-0.063 0.225,-0.059 0.247,-0.059Z" style="fill:rgb(17,17,17);fill-rule:nonzero;"/>
                </g>
                <g transform="matrix(256.133,0,0,256.133,2931.21,903.959)">
                    <rect x="0.071" y="-0.72" width="0.084" height="0.72" style="fill:rgb(17,17,17);fill-rule:nonzero;"/>
                </g>
                <g transform="matrix(256.133,0,0,256.133,159.849,1160.09)">
                    <path d="M0.079,-0L0.079,-0.526L0.163,-0.526L0.163,-0L0.079,-0ZM0.121,-0.626C0.104,-0.626 0.091,-0.631 0.08,-0.643C0.069,-0.654 0.063,-0.667 0.063,-0.684C0.063,-0.701 0.069,-0.714 0.08,-0.725C0.091,-0.735 0.104,-0.74 0.121,-0.74C0.137,-0.74 0.151,-0.735 0.162,-0.725C0.173,-0.714 0.179,-0.701 0.179,-0.684C0.179,-0.667 0.173,-0.654 0.162,-0.643C0.151,-0.631 0.137,-0.626 0.121,-0.626Z" style="fill:rgb(17,17,17);fill-rule:nonzero;"/>
                </g>
                <g transform="matrix(256.133,0,0,256.133,221.577,1160.09)">
                    <path d="M0.071,-0L0.071,-0.526L0.147,-0.526L0.151,-0.443C0.166,-0.473 0.189,-0.496 0.218,-0.513C0.247,-0.53 0.28,-0.538 0.318,-0.538C0.357,-0.538 0.39,-0.531 0.419,-0.516C0.448,-0.501 0.47,-0.479 0.486,-0.449C0.502,-0.419 0.51,-0.381 0.51,-0.335L0.51,-0L0.426,-0L0.426,-0.326C0.426,-0.373 0.415,-0.408 0.392,-0.431C0.369,-0.454 0.338,-0.466 0.299,-0.466C0.273,-0.466 0.249,-0.46 0.227,-0.448C0.205,-0.435 0.188,-0.417 0.175,-0.393C0.162,-0.369 0.155,-0.34 0.155,-0.305L0.155,-0L0.071,-0Z" style="fill:rgb(17,17,17);fill-rule:nonzero;"/>
                </g>
                <g transform="matrix(256.133,0,0,256.133,369.622,1160.09)">
                    <path d="M0.298,0.012C0.25,0.012 0.207,0.001 0.17,-0.023C0.133,-0.046 0.103,-0.078 0.082,-0.119C0.061,-0.16 0.05,-0.208 0.05,-0.263C0.05,-0.318 0.061,-0.367 0.082,-0.408C0.103,-0.449 0.133,-0.481 0.17,-0.504C0.207,-0.527 0.25,-0.538 0.298,-0.538C0.358,-0.538 0.408,-0.522 0.449,-0.49C0.489,-0.458 0.515,-0.415 0.526,-0.361L0.44,-0.361C0.433,-0.394 0.416,-0.42 0.39,-0.439C0.363,-0.457 0.332,-0.466 0.297,-0.466C0.266,-0.466 0.239,-0.458 0.215,-0.443C0.19,-0.428 0.171,-0.405 0.157,-0.375C0.143,-0.345 0.136,-0.308 0.136,-0.263C0.136,-0.23 0.14,-0.2 0.148,-0.175C0.156,-0.149 0.167,-0.128 0.182,-0.111C0.196,-0.094 0.213,-0.081 0.233,-0.072C0.252,-0.063 0.274,-0.059 0.297,-0.059C0.321,-0.059 0.343,-0.063 0.363,-0.072C0.382,-0.08 0.399,-0.092 0.413,-0.108C0.426,-0.124 0.435,-0.143 0.44,-0.165L0.526,-0.165C0.515,-0.112 0.49,-0.07 0.449,-0.037C0.408,-0.004 0.357,0.012 0.298,0.012Z" style="fill:rgb(17,17,17);fill-rule:nonzero;"/>
                </g>
                <g transform="matrix(256.133,0,0,256.133,517.411,1160.09)">
                    <rect x="0.071" y="-0.72" width="0.084" height="0.72" style="fill:rgb(17,17,17);fill-rule:nonzero;"/>
                </g>
                <g transform="matrix(256.133,0,0,256.133,575.297,1160.09)">
                    <path d="M0.26,0.012C0.221,0.012 0.188,0.005 0.159,-0.01C0.13,-0.025 0.108,-0.047 0.092,-0.078C0.076,-0.108 0.068,-0.146 0.068,-0.191L0.068,-0.526L0.152,-0.526L0.152,-0.2C0.152,-0.153 0.164,-0.118 0.187,-0.095C0.21,-0.072 0.24,-0.06 0.279,-0.06C0.306,-0.06 0.33,-0.066 0.351,-0.079C0.372,-0.091 0.39,-0.109 0.403,-0.133C0.416,-0.157 0.422,-0.186 0.422,-0.221L0.422,-0.526L0.506,-0.526L0.506,-0L0.43,-0L0.425,-0.084C0.411,-0.053 0.39,-0.03 0.361,-0.013C0.331,0.004 0.298,0.012 0.26,0.012Z" style="fill:rgb(17,17,17);fill-rule:nonzero;"/>
                </g>
                <g transform="matrix(256.133,0,0,256.133,723.086,1160.09)">
                    <path d="M0.261,0.012C0.214,0.012 0.175,0.005 0.144,-0.01C0.113,-0.024 0.089,-0.044 0.073,-0.07C0.057,-0.095 0.047,-0.125 0.044,-0.159L0.13,-0.159C0.133,-0.141 0.139,-0.125 0.149,-0.11C0.158,-0.095 0.172,-0.082 0.191,-0.073C0.21,-0.064 0.233,-0.059 0.262,-0.059C0.285,-0.059 0.304,-0.063 0.32,-0.07C0.336,-0.077 0.348,-0.086 0.357,-0.099C0.365,-0.112 0.369,-0.126 0.369,-0.143C0.369,-0.165 0.364,-0.182 0.355,-0.195C0.345,-0.207 0.331,-0.216 0.313,-0.223C0.294,-0.229 0.271,-0.234 0.244,-0.237C0.215,-0.241 0.189,-0.247 0.166,-0.254C0.143,-0.261 0.124,-0.271 0.109,-0.283C0.093,-0.295 0.081,-0.31 0.073,-0.328C0.065,-0.346 0.061,-0.367 0.061,-0.392C0.061,-0.421 0.069,-0.446 0.084,-0.468C0.099,-0.49 0.121,-0.507 0.15,-0.52C0.178,-0.532 0.211,-0.538 0.25,-0.538C0.307,-0.538 0.352,-0.525 0.385,-0.499C0.418,-0.473 0.437,-0.436 0.443,-0.388L0.36,-0.388C0.357,-0.413 0.345,-0.432 0.326,-0.446C0.307,-0.46 0.281,-0.467 0.249,-0.467C0.215,-0.467 0.189,-0.461 0.172,-0.448C0.155,-0.435 0.146,-0.419 0.146,-0.398C0.146,-0.383 0.15,-0.369 0.158,-0.357C0.165,-0.344 0.178,-0.334 0.197,-0.326C0.216,-0.317 0.241,-0.311 0.272,-0.307C0.311,-0.302 0.345,-0.295 0.372,-0.285C0.399,-0.274 0.42,-0.258 0.435,-0.237C0.449,-0.216 0.456,-0.187 0.455,-0.15C0.455,-0.115 0.447,-0.086 0.431,-0.062C0.414,-0.038 0.392,-0.02 0.363,-0.007C0.333,0.006 0.3,0.012 0.261,0.012Z" style="fill:rgb(17,17,17);fill-rule:nonzero;"/>
                </g>
                <g transform="matrix(256.133,0,0,256.133,853.458,1160.09)">
                    <path d="M0.079,-0L0.079,-0.526L0.163,-0.526L0.163,-0L0.079,-0ZM0.121,-0.626C0.104,-0.626 0.091,-0.631 0.08,-0.643C0.069,-0.654 0.063,-0.667 0.063,-0.684C0.063,-0.701 0.069,-0.714 0.08,-0.725C0.091,-0.735 0.104,-0.74 0.121,-0.74C0.137,-0.74 0.151,-0.735 0.162,-0.725C0.173,-0.714 0.179,-0.701 0.179,-0.684C0.179,-0.667 0.173,-0.654 0.162,-0.643C0.151,-0.631 0.137,-0.626 0.121,-0.626Z" style="fill:rgb(17,17,17);fill-rule:nonzero;"/>
                </g>
                <g transform="matrix(256.133,0,0,256.133,915.186,1160.09)">
                    <path d="M0.224,-0L0.024,-0.526L0.113,-0.526L0.273,-0.081L0.434,-0.526L0.52,-0.526L0.321,-0L0.224,-0Z" style="fill:rgb(17,17,17);fill-rule:nonzero;"/>
                </g>
                <g transform="matrix(256.133,0,0,256.133,1054.52,1160.09)">
                    <path d="M0.079,-0L0.079,-0.526L0.163,-0.526L0.163,-0L0.079,-0ZM0.121,-0.626C0.104,-0.626 0.091,-0.631 0.08,-0.643C0.069,-0.654 0.063,-0.667 0.063,-0.684C0.063,-0.701 0.069,-0.714 0.08,-0.725C0.091,-0.735 0.104,-0.74 0.121,-0.74C0.137,-0.74 0.151,-0.735 0.162,-0.725C0.173,-0.714 0.179,-0.701 0.179,-0.684C0.179,-0.667 0.173,-0.654 0.162,-0.643C0.151,-0.631 0.137,-0.626 0.121,-0.626Z" style="fill:rgb(17,17,17);fill-rule:nonzero;"/>
                </g>
                <g transform="matrix(256.133,0,0,256.133,1116.25,1160.09)">
                    <path d="M0.275,-0C0.245,-0 0.219,-0.005 0.197,-0.014C0.175,-0.023 0.158,-0.039 0.147,-0.062C0.135,-0.084 0.129,-0.114 0.129,-0.152L0.129,-0.455L0.037,-0.455L0.037,-0.526L0.129,-0.526L0.14,-0.657L0.213,-0.657L0.213,-0.526L0.362,-0.526L0.362,-0.455L0.213,-0.455L0.213,-0.152C0.213,-0.121 0.219,-0.099 0.232,-0.089C0.245,-0.078 0.267,-0.072 0.299,-0.072L0.36,-0.072L0.36,-0L0.275,-0Z" style="fill:rgb(17,17,17);fill-rule:nonzero;"/>
                </g>
                <g transform="matrix(256.133,0,0,256.133,1220.24,1160.09)">
                    <path d="M0.13,0.22L0.249,-0.056L0.22,-0.056L0.023,-0.526L0.114,-0.526L0.277,-0.121L0.447,-0.526L0.534,-0.526L0.217,0.22L0.13,0.22Z" style="fill:rgb(17,17,17);fill-rule:nonzero;"/>
                </g>
                <g transform="matrix(256.133,0,0,256.133,1431.81,1160.09)">
                    <path d="M0.079,-0L0.079,-0.526L0.163,-0.526L0.163,-0L0.079,-0ZM0.121,-0.626C0.104,-0.626 0.091,-0.631 0.08,-0.643C0.069,-0.654 0.063,-0.667 0.063,-0.684C0.063,-0.701 0.069,-0.714 0.08,-0.725C0.091,-0.735 0.104,-0.74 0.121,-0.74C0.137,-0.74 0.151,-0.735 0.162,-0.725C0.173,-0.714 0.179,-0.701 0.179,-0.684C0.179,-0.667 0.173,-0.654 0.162,-0.643C0.151,-0.631 0.137,-0.626 0.121,-0.626Z" style="fill:rgb(17,17,17);fill-rule:nonzero;"/>
                </g>
                <g transform="matrix(256.133,0,0,256.133,1493.53,1160.09)">
                    <path d="M0.071,-0L0.071,-0.526L0.147,-0.526L0.151,-0.443C0.166,-0.473 0.189,-0.496 0.218,-0.513C0.247,-0.53 0.28,-0.538 0.318,-0.538C0.357,-0.538 0.39,-0.531 0.419,-0.516C0.448,-0.501 0.47,-0.479 0.486,-0.449C0.502,-0.419 0.51,-0.381 0.51,-0.335L0.51,-0L0.426,-0L0.426,-0.326C0.426,-0.373 0.415,-0.408 0.392,-0.431C0.369,-0.454 0.338,-0.466 0.299,-0.466C0.273,-0.466 0.249,-0.46 0.227,-0.448C0.205,-0.435 0.188,-0.417 0.175,-0.393C0.162,-0.369 0.155,-0.34 0.155,-0.305L0.155,-0L0.071,-0Z" style="fill:rgb(17,17,17);fill-rule:nonzero;"/>
                </g>
                <g transform="matrix(256.133,0,0,256.133,1641.58,1160.09)">
                    <path d="M0.288,0.012C0.241,0.012 0.2,0 0.164,-0.024C0.128,-0.048 0.1,-0.081 0.08,-0.123C0.06,-0.164 0.05,-0.211 0.05,-0.264C0.05,-0.317 0.06,-0.365 0.08,-0.406C0.1,-0.447 0.128,-0.479 0.164,-0.503C0.2,-0.526 0.242,-0.538 0.289,-0.538C0.33,-0.538 0.366,-0.53 0.396,-0.513C0.425,-0.496 0.449,-0.473 0.466,-0.443L0.466,-0.72L0.55,-0.72L0.55,-0L0.474,-0L0.467,-0.084C0.457,-0.067 0.444,-0.052 0.428,-0.037C0.411,-0.022 0.392,-0.011 0.369,-0.002C0.345,0.008 0.319,0.012 0.288,0.012ZM0.299,-0.061C0.332,-0.061 0.361,-0.069 0.386,-0.086C0.411,-0.102 0.43,-0.125 0.443,-0.156C0.456,-0.186 0.463,-0.222 0.463,-0.263C0.463,-0.304 0.456,-0.34 0.443,-0.371C0.43,-0.401 0.411,-0.424 0.386,-0.441C0.361,-0.457 0.332,-0.465 0.299,-0.465C0.268,-0.465 0.24,-0.457 0.215,-0.441C0.19,-0.424 0.171,-0.401 0.157,-0.371C0.143,-0.34 0.136,-0.304 0.136,-0.263C0.136,-0.222 0.143,-0.186 0.157,-0.156C0.171,-0.125 0.19,-0.102 0.215,-0.086C0.24,-0.069 0.268,-0.061 0.299,-0.061Z" style="fill:rgb(17,17,17);fill-rule:nonzero;"/>
                </g>
                <g transform="matrix(256.133,0,0,256.133,1800.64,1160.09)">
                    <path d="M0.289,0.012C0.242,0.012 0.201,0.001 0.165,-0.022C0.129,-0.045 0.101,-0.077 0.081,-0.118C0.06,-0.159 0.05,-0.208 0.05,-0.263C0.05,-0.318 0.06,-0.367 0.081,-0.408C0.101,-0.449 0.129,-0.481 0.166,-0.504C0.202,-0.527 0.244,-0.538 0.291,-0.538C0.342,-0.538 0.384,-0.527 0.418,-0.504C0.452,-0.481 0.478,-0.451 0.495,-0.413C0.512,-0.375 0.521,-0.333 0.521,-0.288L0.521,-0.268C0.521,-0.261 0.521,-0.253 0.52,-0.244L0.113,-0.244L0.113,-0.309L0.439,-0.309C0.438,-0.36 0.423,-0.4 0.395,-0.427C0.366,-0.454 0.331,-0.467 0.289,-0.467C0.261,-0.467 0.235,-0.46 0.212,-0.447C0.188,-0.433 0.169,-0.413 0.154,-0.386C0.139,-0.359 0.132,-0.326 0.132,-0.286L0.132,-0.258C0.132,-0.214 0.139,-0.177 0.154,-0.148C0.169,-0.118 0.188,-0.096 0.212,-0.081C0.235,-0.066 0.261,-0.059 0.289,-0.059C0.326,-0.059 0.356,-0.066 0.377,-0.081C0.398,-0.095 0.414,-0.115 0.424,-0.142L0.507,-0.142C0.499,-0.113 0.485,-0.086 0.466,-0.063C0.446,-0.04 0.421,-0.021 0.392,-0.008C0.362,0.005 0.328,0.012 0.289,0.012Z" style="fill:rgb(17,17,17);fill-rule:nonzero;"/>
                </g>
                <g transform="matrix(256.133,0,0,256.133,1939.72,1160.09)">
                    <path d="M0.024,-0L0.192,-0.264L0.024,-0.526L0.116,-0.526L0.246,-0.317L0.377,-0.526L0.468,-0.526L0.3,-0.264L0.468,-0L0.377,-0L0.246,-0.214L0.117,-0L0.024,-0Z" style="fill:rgb(17,17,17);fill-rule:nonzero;"/>
                </g>
            </g>
        </g>
    </g>
</svg>
